# xmcd CD database file
#
# Track frame offsets:
#	150
#	15627
#	33642
#
# Disc length: 652 seconds
#
# Revision: 0
# Processed by: cddbd v1.5.1PL0 Copyright (c) Steve Scherf et al.
# Submitted via: CDex 1.51
#
DISCID=1c028a03
DTITLE=BON-BON BLANCO - 手のひらを太陽に
DYEAR=2004
DGENRE=JPop
TTITLE0=手のひらを太陽に
TTITLE1=O.K!
TTITLE2=手のひらを太陽に〜instrumental〜
EXTD=YEAR: 2004
EXTT0=
EXTT1=
EXTT2=
PLAYORDER=
